<svg width="75" height="75" viewBox="0 0 75 75" fill="none" xmlns="http://www.w3.org/2000/svg">
<path fill-rule="evenodd" clip-rule="evenodd" d="M6 0C2.68629 0 0 2.68629 0 6V69C0 72.3137 2.68629 75 6 75H69C72.3137 75 75 72.3137 75 69V6C75 2.68629 72.3137 0 69 0H6Z" fill="#002277"/>
<path fill-rule="evenodd" clip-rule="evenodd" d="M37.3476 44.4207C35.7971 44.4207 34.2555 44.7448 32.8084 45.3817C31.3605 46.0189 30.0286 46.9601 28.8954 48.1641C27.7618 49.3686 26.8505 50.8116 26.2249 52.4165C25.5991 54.0216 25.2744 55.7497 25.2744 57.5H21.25C21.25 55.2539 21.6664 53.0298 22.4754 50.9547C23.2843 48.8796 24.4701 46.9941 25.9649 45.4059C27.4597 43.8176 29.2343 42.5578 31.1873 41.6983C33.1403 40.8387 35.2336 40.3963 37.3476 40.3963C39.4615 40.3963 41.5548 40.8387 43.5078 41.6983C45.4609 42.5578 47.2354 43.8176 48.7303 45.4059C50.225 46.9941 51.4108 48.8796 52.2198 50.9547C53.0287 53.0298 53.4451 55.2539 53.4451 57.5H49.4207C49.4207 55.7497 49.096 54.0216 48.4702 52.4164C47.8446 50.8116 46.9334 49.3686 45.7997 48.1641C44.6665 46.9601 43.3346 46.0189 41.8867 45.3817C40.4396 44.7448 38.898 44.4207 37.3476 44.4207Z" fill="white"/>
<path fill-rule="evenodd" clip-rule="evenodd" d="M37.3476 36.372C41.7928 36.372 45.3963 32.7684 45.3963 28.3232C45.3963 23.878 41.7928 20.2744 37.3476 20.2744C32.9023 20.2744 29.2988 23.878 29.2988 28.3232C29.2988 32.7684 32.9023 36.372 37.3476 36.372ZM37.3476 40.3963C44.0154 40.3963 49.4207 34.991 49.4207 28.3232C49.4207 21.6553 44.0154 16.25 37.3476 16.25C30.6797 16.25 25.2744 21.6553 25.2744 28.3232C25.2744 34.991 30.6797 40.3963 37.3476 40.3963Z" fill="white"/>
</svg>
