<svg id="Слой_1" data-name="Слой 1" xmlns="http://www.w3.org/2000/svg" viewBox="0 0 34 34"><defs><style>.cls-1{fill:#29abe2;opacity:0.3;}</style></defs><title>Au_box</title><path class="cls-1" d="M28,0H6A6,6,0,0,0,0,6V28a6,6,0,0,0,6,6H28a6,6,0,0,0,6-6V6A6,6,0,0,0,28,0ZM21.43,22.29A5,5,0,0,1,19.5,23.4a3.76,3.76,0,0,1-.87.19,7,7,0,0,1-.79.06c-.26,0-.52,0-.78-.08a4.77,4.77,0,0,1-1.06-.3,5,5,0,0,1-1.14-.66,4.92,4.92,0,0,1-.72-.65,4.72,4.72,0,0,1-.65-.89L13.41,21c-.1.15-.18.29-.28.43a5,5,0,0,1-.55.67,4.92,4.92,0,0,1-1.14.9,5.18,5.18,0,0,1-1.56.59,4.48,4.48,0,0,1-.82.1c-.2,0-.4,0-.61,0a5,5,0,0,1-1.57-.37,4.78,4.78,0,0,1-1.06-.59c-.16-.12-.31-.26-.46-.39a4.53,4.53,0,0,1-1-1.19A4.27,4.27,0,0,1,4,20c-.06-.22-.11-.45-.15-.67s0-.2,0-.3a.14.14,0,0,0,0-.06V10.19l0,0a1,1,0,0,1,.78-.77l.08,0H5l.21.08a1,1,0,0,1,.62.82c0,.13,0,.25,0,.37v4A5.37,5.37,0,0,1,10,13.7a5.06,5.06,0,0,1,3.47,2.52,1.48,1.48,0,0,1,.13-.21c.15-.22.31-.44.47-.65s.26-.28.39-.41a4.91,4.91,0,0,1,.91-.66,4.76,4.76,0,0,1,1-.46,6,6,0,0,1,.84-.18,5.66,5.66,0,0,1,.82-.06,4.88,4.88,0,0,1,1,.11,5.52,5.52,0,0,1,1.42.53,4.68,4.68,0,0,1,.8.54c.12.11.25.21.37.33a4.82,4.82,0,0,1,.93,1.3A4.43,4.43,0,0,1,23,17.75a4.57,4.57,0,0,1,.05,1,5.34,5.34,0,0,1-.2,1.25,4.92,4.92,0,0,1-.4,1,4.48,4.48,0,0,1-.58.84C21.74,22,21.59,22.14,21.43,22.29Zm6.41-3.14,1.05,1.39.9,1.21.29.39a1.17,1.17,0,0,1,.15.48,1.09,1.09,0,0,1-.06.44.86.86,0,0,1-.54.53,1.14,1.14,0,0,1-1-.12,1.18,1.18,0,0,1-.3-.33l-.74-.94c-.25-.33-.5-.66-.76-1l-.64-.83c0-.05-.06,0-.08,0l-.25.32-.6.78c-.24.3-.47.6-.7.91l-.69.89a.89.89,0,0,1-.64.32,1.21,1.21,0,0,1-.88-.3.93.93,0,0,1-.31-.6,1.12,1.12,0,0,1,.25-.79L23,21l.71-.92,1-1.32a.86.86,0,0,1,.07-.1c.06-.05,0-.08,0-.12L24.4,18l-.75-1c-.22-.29-.44-.59-.67-.88l-.74-1a1,1,0,0,1-.18-.92,1.11,1.11,0,0,1,.24-.47.8.8,0,0,1,.49-.27,1.1,1.1,0,0,1,1.05.33c.14.15.25.33.38.49L25,15.39l.67.89.42.55.17-.21.41-.51.53-.66.52-.63.6-.74a1.36,1.36,0,0,1,.45-.41,1.21,1.21,0,0,1,1.17.18.73.73,0,0,1,.24.38,1.21,1.21,0,0,1-.27,1.12l-.48.63L28.65,17l-1.13,1.48-.08.1ZM11.63,17.28A3.11,3.11,0,0,0,10.36,16a3.08,3.08,0,0,0-1.52-.4l-.45,0a2.58,2.58,0,0,0-.86.25,3.28,3.28,0,0,0-1,.77,2.84,2.84,0,0,0-.51.81,2.93,2.93,0,0,0-.24,1.43,3.34,3.34,0,0,0,.14.7,2.87,2.87,0,0,0,.49.91,3.11,3.11,0,0,0,2.24,1.17,3.23,3.23,0,0,0,1-.08,3,3,0,0,0,.86-.34,2.84,2.84,0,0,0,1.24-1.38A3,3,0,0,0,12,18.8a3.76,3.76,0,0,0,0-.58A2.63,2.63,0,0,0,11.63,17.28Zm9.31.43a2.89,2.89,0,0,0-.63-1.1,3.3,3.3,0,0,0-.91-.7A3.2,3.2,0,0,0,18,15.57l-.49,0a3,3,0,0,0-.77.23,3.07,3.07,0,0,0-1.12.83,3.15,3.15,0,0,0-.48.76,2.89,2.89,0,0,0-.24,1.12,2.76,2.76,0,0,0,.05.64,2.88,2.88,0,0,0,.71,1.44,3,3,0,0,0,.89.69,3,3,0,0,0,1.22.33,3.09,3.09,0,0,0,.8,0A3.13,3.13,0,0,0,20,20.89a2.94,2.94,0,0,0,.72-.92,2.85,2.85,0,0,0,.33-1.67A3.09,3.09,0,0,0,20.94,17.71Z"/></svg>