<svg id="Слой_1" data-name="Слой 1" xmlns="http://www.w3.org/2000/svg" viewBox="0 0 34 34"><defs><style>.cls-1{fill:#1b1464;opacity:0.3;}</style></defs><title>Au_F</title><path class="cls-1" d="M21.79,6.24V10c-.71,0-1.41,0-2.12,0s-1.15.35-1.14,1.16,0,1.35,0,2.14h3.33c-.14,1.23-.25,2.36-.43,3.47,0,.15-.39.33-.6.34-.72,0-1.44,0-2.27,0V27.8H14.15V17.12l-2-.1V13.26H14c.08-1.24.09-2.41.25-3.56a3.68,3.68,0,0,1,3.26-3.42A37.71,37.71,0,0,1,21.79,6.24ZM28,0H6A6,6,0,0,0,0,6V28a6,6,0,0,0,6,6H28a6,6,0,0,0,6-6V6A6,6,0,0,0,28,0Z"/></svg>