<svg id="Слой_1" data-name="Слой 1" xmlns="http://www.w3.org/2000/svg" viewBox="0 0 34 34"><defs><style>.cls-1{fill:#168de2;opacity:0.3;}</style></defs><title>Au_mail</title><path class="cls-1" d="M28,0H6A6,6,0,0,0,0,6V28a6,6,0,0,0,6,6H28a6,6,0,0,0,6-6V6A6,6,0,0,0,28,0ZM21.23,21.92a6.56,6.56,0,0,1-9.69-.55,6.4,6.4,0,0,1,0-8.42,6.47,6.47,0,0,1,9.73-.6.8.8,0,0,0,.08-.12,1,1,0,0,1,1.31-.79,1.08,1.08,0,0,1,.84,1.17v9a2.11,2.11,0,0,0,0,.35.5.5,0,0,0,.43.45.71.71,0,0,0,.54-.18,5.53,5.53,0,0,0,.73-1.12A9.79,9.79,0,0,0,26.05,16a7.47,7.47,0,0,0-1.95-4.59,9.41,9.41,0,0,0-5.34-2.87,9.46,9.46,0,0,0-6.61,1.05,8.38,8.38,0,0,0-4.1,6.13,8.17,8.17,0,0,0,2,7.09,8.9,8.9,0,0,0,5.55,2.86,8.22,8.22,0,0,0,4.25-.43,1.18,1.18,0,0,1,1.5.43,1.29,1.29,0,0,1-.24,1.61,2.65,2.65,0,0,1-.73.46,9.5,9.5,0,0,1-3.89.51,12.35,12.35,0,0,1-5.32-1.4,10.47,10.47,0,0,1-5.74-8.14,10.69,10.69,0,0,1,2.23-8.49A11.43,11.43,0,0,1,14.55,6,12,12,0,0,1,24.87,8.55,10.34,10.34,0,0,1,28.52,15a11.42,11.42,0,0,1-.76,6.75,7.08,7.08,0,0,1-2.08,2.71,2.76,2.76,0,0,1-4.4-1.61A8.52,8.52,0,0,1,21.23,21.92Zm-4.58-9.14a3.69,3.69,0,0,0-3.31,1.57A4.85,4.85,0,0,0,13,19.61a4,4,0,0,0,4.67,1.85A4.36,4.36,0,0,0,21,16.7,4.17,4.17,0,0,0,16.65,12.78Z"/></svg>