<svg id="Слой_1" data-name="Слой 1" xmlns="http://www.w3.org/2000/svg" viewBox="0 0 34 34"><defs><style>.cls-1{fill:#f7931e;opacity:0.3;}</style></defs><title>Au_O</title><path class="cls-1" d="M17.13,17.33a5.24,5.24,0,1,1,5.26-5.24A5.26,5.26,0,0,1,17.13,17.33Zm0-7.54a2.3,2.3,0,1,0,2.31,2.3A2.3,2.3,0,0,0,17.13,9.79Zm2.16,11.8.45.46c.82.8,1.65,1.58,2.44,2.41A1.57,1.57,0,0,1,21.67,27a1.74,1.74,0,0,1-1.87-.36l-2.48-2.47L17,23.9c-.59.59-1.17,1.15-1.74,1.71-.37.36-.74.72-1.1,1.09a1.69,1.69,0,0,1-2.62-.45,1.59,1.59,0,0,1,.33-1.86c.83-.83,1.67-1.66,2.52-2.48a1.55,1.55,0,0,1,.38-.21c-1-.45-1.88-.8-2.72-1.21A1.64,1.64,0,0,1,11,18.88a1.63,1.63,0,0,1,2.46-1.37,7.2,7.2,0,0,0,3.38,1,6.65,6.65,0,0,0,3.7-1,1.61,1.61,0,0,1,2.37.76,1.49,1.49,0,0,1-.63,2c-.86.46-1.79.8-2.69,1.2ZM28,0H6A6,6,0,0,0,0,6V28a6,6,0,0,0,6,6H28a6,6,0,0,0,6-6V6A6,6,0,0,0,28,0Z"/></svg>