<svg id="Слой_1" data-name="Слой 1" xmlns="http://www.w3.org/2000/svg" viewBox="0 0 34 34"><defs><style>.cls-1{fill:#29abe2;opacity:0.3;}</style></defs><title>Au_T</title><path class="cls-1" d="M6.68,23.56c2.34.41,4.22-.48,6.1-1.74-1.88-.29-3.45-.92-4-3h1.63c-1.74-.9-3.24-1.92-3-4.24L8.72,15l0-.08c-1.47-1.62-1.55-3.47-.85-5.55a11.63,11.63,0,0,0,8.81,4.41v-.19a13.25,13.25,0,0,1,.16-2.2,3.75,3.75,0,0,1,2.92-2.7,4.19,4.19,0,0,1,4.1,1,.84.84,0,0,0,.81.18,4,4,0,0,0,1.84-.92,1,1,0,0,1,.17-.12,3.59,3.59,0,0,1-1.35,2.35l1.95-.42a2,2,0,0,1-.24.36l-1.64,1.61a.42.42,0,0,0-.12.28c-.19,2.24-.33,4.49-1.69,6.42a5.89,5.89,0,0,0-.32.54A11,11,0,0,1,18,24.55a11.3,11.3,0,0,1-3.16.95,1.55,1.55,0,0,1-.21,0,24.19,24.19,0,0,1-4.81-.35A7.67,7.67,0,0,1,7.17,24a1.76,1.76,0,0,1-.3-.24A2.57,2.57,0,0,1,6.68,23.56ZM28,0H6A6,6,0,0,0,0,6V28a6,6,0,0,0,6,6H28a6,6,0,0,0,6-6V6A6,6,0,0,0,28,0Z"/></svg>