<svg id="Слой_1" data-name="Слой 1" xmlns="http://www.w3.org/2000/svg" viewBox="0 0 34 34"><defs><style>.cls-1{fill:#1f4395;opacity:0.3;}</style></defs><title>Au_vk</title><path class="cls-1" d="M18.17,14.37h0c0-.6,0-1.21,0-1.82,0-.81-.3-1.22-1.07-1.27a19.13,19.13,0,0,0-2.73,0,3.67,3.67,0,0,0-1.22.41.51.51,0,0,0-.25.42c0,.13.23.23.36.33a.33.33,0,0,0,.13,0c.53.14.65.31.66.85s.06,1.12.06,1.69A6.65,6.65,0,0,1,14,16.28c-.09.43-.39.52-.71.21a3.84,3.84,0,0,1-.69-.86,18.15,18.15,0,0,1-1.64-3.23,1.11,1.11,0,0,0-.9-.76,6.37,6.37,0,0,0-2.68,0c-.68.14-.91.47-.67,1.14a19,19,0,0,0,1.17,2.74,29.92,29.92,0,0,0,3.42,4.65,8.1,8.1,0,0,0,3.42,2.27,1,1,0,0,0,.42.09c.71,0,1.42,0,2.13,0a.81.81,0,0,0,.8-.68c.05-.31,0-.63.07-.94a2,2,0,0,1,.14-.65.46.46,0,0,1,.75-.19,1.07,1.07,0,0,1,.28.28,8.87,8.87,0,0,0,1.64,1.71,1.76,1.76,0,0,0,1.25.64,20.74,20.74,0,0,0,2.23,0,3.21,3.21,0,0,0,1.08-.29.85.85,0,0,0,.44-1.23,2.52,2.52,0,0,0-.5-.75c-.59-.61-1.22-1.18-1.83-1.77-.2-.19-.41-.39-.59-.59a.5.5,0,0,1-.06-.63c.21-.33.4-.67.62-1,.63-.92,1.29-1.81,1.9-2.74a5,5,0,0,0,.5-1.13.6.6,0,0,0-.45-.81,2.6,2.6,0,0,0-.56-.06c-1,0-2,0-3,0a.6.6,0,0,0-.61.37c-.24.48-.45,1-.71,1.45-.54.94-1.09,1.88-1.67,2.8-.08.13-.36.18-.54.16s-.2-.27-.21-.42C18.16,15.55,18.17,15,18.17,14.37ZM28,34H6a6,6,0,0,1-6-6V6A6,6,0,0,1,6,0H28a6,6,0,0,1,6,6V28A6,6,0,0,1,28,34Z"/></svg>