<svg id="Слой_1" data-name="Слой 1" xmlns="http://www.w3.org/2000/svg" viewBox="0 0 34 34"><defs><style>.cls-1{fill:#ed1f24;opacity:0.3;}</style></defs><title>Au_Ya</title><path class="cls-1" d="M19,19.77c0,2,0,4.07,0,6.1,0,1.45-.2,1.26,1.3,1.31.67,0,.88-.17.87-.85,0-2.17,0-4.33,0-6.5,0-4,0-8.1,0-12.15,0-.68-.22-.91-.88-.86s-1.32,0-2,0c-3.25,0-5.3,1.59-6,4.76C11.81,14,12,16.37,14,18.22a14.2,14.2,0,0,0,1.52,1.11L12,25.59c-.89,1.61-1,1.58.92,1.6a1.24,1.24,0,0,0,1.3-.78c.94-1.95,2-3.84,2.91-5.79A1.3,1.3,0,0,1,19,19.77Zm0-11v9c-2.36.43-4-.69-4.36-3a10.13,10.13,0,0,1,0-3.11C15,9.69,16,8.29,18.94,8.72ZM28,34H6a6,6,0,0,1-6-6V6A6,6,0,0,1,6,0H28a6,6,0,0,1,6,6V28A6,6,0,0,1,28,34Z"/></svg>